{"title":"Geordie Shore S12E02 1080P WEB-DL AAC2 0 H 264","uid":13995044,"size":1602538791,"categoryP":"video","categoryS":"hd___tv_shows","magnet":"?xt=urn:btih:d16fb94b258960b1634652df9470e30566b0f582&amp;dn=Geordie+Shore+S12E02+1080P+WEB-DL+AAC2+0+H+264&amp;tr=udp%3A%2F%2Ftracker.leechers-paradise.org%3A6969&amp;tr=udp%3A%2F%2Fzer0day.ch%3A1337&amp;tr=udp%3A%2F%2Fopen.demonii.com%3A1337&amp;tr=udp%3A%2F%2Ftracker.coppersurfer.tk%3A6969&amp;tr=udp%3A%2F%2Fexodus.desync.com%3A6969","seeders":2,"leechers":0,"uploader":"jmanwf","files":1,"time":1458733285,"description":"Description\r\nCharlotte finally turns up with some bunnies and some bigger news for Gaz. Will Holly share her secret? Aaron and Scott's dates with Chantelle end badly as the lads and Chloe all kick off.\r\n\r\n\r\n\r\nVideo\r\nID : 2\r\nFormat : AVC\r\nFormat/Info : Advanced Video Codec\r\nFormat profile :   \r\nFormat settings, CABAC : Yes\r\nFormat settings, ReFrames : 4 frames\r\nCodec ID : avc1\r\nCodec ID/Info : Advanced Video Coding\r\nDuration : 42mn 0s\r\nBit rate : 4 956 Kbps\r\nWidth : 1 920 pixels\r\nHeight : 1 080 pixels\r\nDisplay aspect ratio : 16:9\r\nFrame rate mode : Constant\r\nFrame rate : 25.000 fps\r\nColor space : YUV\r\nChroma subsampling : 4:2:0\r\nBit depth : 8 bits\r\nScan type : Progressive\r\nBits/(Pixel*Frame) : 0.096\r\nStream size : 1.45 GiB (97%)\r\nLanguage : English\r\nEncoded date : UTC 2016-03-23 04:43:56\r\nTagged date : UTC 2016-03-23 04:47:02\r\nColor range : Limited\r\nColor primaries : BT.709\r\nTransfer characteristics : BT.709\r\nMatrix coefficients : BT.709\r\n\r\nAudio\r\nID : 1\r\nFormat : AAC\r\nFormat/Info : Advanced Audio Codec\r\nFormat profile : LC\r\nCodec ID : 40\r\nDuration : 42mn 0s\r\nBit rate mode : Variable\r\nBit rate : 126 Kbps\r\nMaximum bit rate : 185 Kbps\r\nChannel(s) : 2 channels\r\nChannel positions : Front: L R\r\nSampling rate : 48.0 KHz\r\nCompression mode : Lossy\r\nStream size : 37.8 MiB (2%)\r\nLanguage : English\r\nEncoded date : UTC 2016-03-23 04:43:56\r\nTagged date : UTC 2016-03-23 04:47:02\r\n\r\nText\r\nID : 3-CC1\r\nFormat : EIA-608\r\nMuxing mode : Final Cut\r\nCodec ID : c608\r\nDuration : 41mn 35s\r\nBit rate mode : Constant\r\nStream size : 0.00 Byte (0%)\r\nLanguage : English\r\nEncoded date : UTC 2016-03-23 04:43:56\r\nTagged date : UTC 2016-03-23 04:44:03","torrent":{"xt":"urn:btih:d16fb94b258960b1634652df9470e30566b0f582","amp;dn":"Geordie+Shore+S12E02+1080P+WEB-DL+AAC2+0+H+264","amp;tr":["udp%3A%2F%2Ftracker.leechers-paradise.org%3A6969","udp%3A%2F%2Fzer0day.ch%3A1337","udp%3A%2F%2Fopen.demonii.com%3A1337","udp%3A%2F%2Ftracker.coppersurfer.tk%3A6969","udp%3A%2F%2Fexodus.desync.com%3A6969"],"infoHash":"d16fb94b258960b1634652df9470e30566b0f582","infoHashBuffer":{"type":"Buffer","data":[209,111,185,75,37,137,96,177,99,70,82,223,148,112,227,5,102,176,245,130]},"announce":[],"urlList":[]}}